<svg xmlns="http://www.w3.org/2000/svg" xmlns:xlink="http://www.w3.org/1999/xlink" width="284" zoomAndPan="magnify" viewBox="0 0 212.87999 197.249993" height="263" preserveAspectRatio="xMidYMid meet" version="1.0"><defs><g/><clipPath id="3628a5b463"><path d="M 89 12 L 212.417969 12 L 212.417969 141 L 89 141 Z M 89 12 " clip-rule="nonzero"/></clipPath></defs><g fill="#d62828" fill-opacity="1"><g transform="translate(44.930978, 140.777087)"><g><path d="M 69.65625 0 L 40.546875 0 L 40.546875 -34.578125 C 40.546875 -36.453125 40.078125 -37.851562 39.140625 -38.78125 C 38.210938 -39.71875 37.117188 -40.1875 35.859375 -40.1875 C 34.609375 -40.1875 33.515625 -39.738281 32.578125 -38.84375 C 31.640625 -37.957031 31.171875 -36.578125 31.171875 -34.703125 L 31.171875 0 L 1.21875 0 L 1.21875 -35.921875 C 1.21875 -42.335938 2.210938 -47.738281 4.203125 -52.125 C 6.191406 -56.507812 8.867188 -60.039062 12.234375 -62.71875 C 15.609375 -65.394531 19.34375 -67.34375 23.4375 -68.5625 C 27.539062 -69.78125 31.703125 -70.390625 35.921875 -70.390625 C 39.335938 -70.390625 42.707031 -69.800781 46.03125 -68.625 C 49.363281 -67.445312 52.410156 -65.476562 55.171875 -62.71875 C 57.523438 -65.3125 60.425781 -67.21875 63.875 -68.4375 C 67.320312 -69.65625 70.710938 -70.304688 74.046875 -70.390625 C 78.347656 -70.390625 82.566406 -69.757812 86.703125 -68.5 C 90.847656 -67.238281 94.601562 -65.25 97.96875 -62.53125 C 101.34375 -59.8125 104.039062 -56.257812 106.0625 -51.875 C 108.09375 -47.488281 109.109375 -42.171875 109.109375 -35.921875 L 109.109375 0 L 79.15625 0 L 79.15625 -34.703125 C 79.15625 -36.578125 78.664062 -37.957031 77.6875 -38.84375 C 76.71875 -39.738281 75.625 -40.1875 74.40625 -40.1875 C 73.1875 -40.1875 72.085938 -39.71875 71.109375 -38.78125 C 70.140625 -37.851562 69.65625 -36.453125 69.65625 -34.578125 Z M 69.65625 0 "/></g></g></g><g clip-path="url(#3628a5b463)"><path stroke-linecap="butt" transform="matrix(0.747159, 0, 0, 0.747159, 111.681217, 8.866312)" fill="none" stroke-linejoin="miter" d="M 55.431893 125.910401 C 50.606322 125.910401 46.057843 125.005934 41.786455 123.186542 C 37.520295 121.356694 33.761264 118.815819 30.519819 115.569146 C 27.273145 112.327701 24.742727 108.56867 22.928563 104.30251 C 21.1144 100.031122 20.204704 95.482642 20.204704 90.657072 C 20.204704 85.747851 21.1144 81.183687 22.928563 76.954124 C 24.742727 72.724561 27.273145 68.986443 30.519819 65.739769 C 33.761264 62.498324 37.520295 59.967906 41.786455 58.153742 C 46.057843 56.33435 50.606322 55.429883 55.431893 55.429883 C 60.341114 55.429883 64.905278 56.33435 69.134841 58.153742 C 73.385316 59.967906 77.123434 62.498324 80.349195 65.739769 C 83.59064 68.986443 86.121059 72.724561 87.935222 76.954124 C 89.770299 81.183687 90.690451 85.747851 90.690451 90.657072 C 90.690451 95.482642 89.770299 100.031122 87.935222 104.30251 C 86.121059 108.56867 83.59064 112.327701 80.349195 115.569146 C 77.123434 118.815819 73.385316 121.356694 69.134841 123.186542 C 64.905278 125.005934 60.341114 125.910401 55.431893 125.910401 Z M 55.431893 84.602889 C 53.774573 84.602889 52.342064 85.198896 51.14482 86.39614 C 49.968489 87.577699 49.37771 88.994524 49.37771 90.657072 C 49.37771 92.314391 49.968489 93.746901 51.14482 94.944144 C 52.342064 96.120475 53.774573 96.711255 55.431893 96.711255 C 57.094441 96.711255 58.511266 96.120475 59.692825 94.944144 C 60.890068 93.746901 61.486076 92.314391 61.486076 90.657072 C 61.486076 88.994524 60.890068 87.577699 59.692825 86.39614 C 58.511266 85.198896 57.094441 84.602889 55.431893 84.602889 Z M 55.431893 84.602889 " stroke="#fff9f9" stroke-width="8.900025" stroke-opacity="1" stroke-miterlimit="4"/></g><g fill="#d62828" fill-opacity="1"><g transform="translate(126.064028, 101.514033)"><g><path d="M 27.046875 1.421875 C 23.429688 1.421875 20.03125 0.742188 16.84375 -0.609375 C 13.65625 -1.972656 10.847656 -3.863281 8.421875 -6.28125 C 5.992188 -8.707031 4.097656 -11.515625 2.734375 -14.703125 C 1.378906 -17.898438 0.703125 -21.300781 0.703125 -24.90625 C 0.703125 -28.570312 1.378906 -31.984375 2.734375 -35.140625 C 4.097656 -38.304688 5.992188 -41.101562 8.421875 -43.53125 C 10.847656 -45.957031 13.65625 -47.847656 16.84375 -49.203125 C 20.03125 -50.566406 23.429688 -51.25 27.046875 -51.25 C 30.703125 -51.25 34.109375 -50.566406 37.265625 -49.203125 C 40.429688 -47.847656 43.226562 -45.957031 45.65625 -43.53125 C 48.082031 -41.101562 49.972656 -38.304688 51.328125 -35.140625 C 52.691406 -31.984375 53.375 -28.570312 53.375 -24.90625 C 53.375 -21.300781 52.691406 -17.898438 51.328125 -14.703125 C 49.972656 -11.515625 48.082031 -8.707031 45.65625 -6.28125 C 43.226562 -3.863281 40.429688 -1.972656 37.265625 -0.609375 C 34.109375 0.742188 30.703125 1.421875 27.046875 1.421875 Z M 27.046875 -29.4375 C 25.796875 -29.4375 24.726562 -28.992188 23.84375 -28.109375 C 22.957031 -27.222656 22.515625 -26.15625 22.515625 -24.90625 C 22.515625 -23.664062 22.957031 -22.601562 23.84375 -21.71875 C 24.726562 -20.832031 25.796875 -20.390625 27.046875 -20.390625 C 28.285156 -20.390625 29.347656 -20.832031 30.234375 -21.71875 C 31.117188 -22.601562 31.5625 -23.664062 31.5625 -24.90625 C 31.5625 -26.15625 31.117188 -27.222656 30.234375 -28.109375 C 29.347656 -28.992188 28.285156 -29.4375 27.046875 -29.4375 Z M 27.046875 -29.4375 "/></g></g></g></svg>