<svg xmlns="http://www.w3.org/2000/svg" xmlns:xlink="http://www.w3.org/1999/xlink" width="396" zoomAndPan="magnify" viewBox="0 0 297 194.249992" height="259" preserveAspectRatio="xMidYMid meet" version="1.0"><defs><g/></defs><g fill="#d62828" fill-opacity="1"><g transform="translate(45.156121, 137.762699)"><g><path d="M 69.65625 0 L 40.546875 0 L 40.546875 -34.578125 C 40.546875 -36.441406 40.078125 -37.84375 39.140625 -38.78125 C 38.210938 -39.71875 37.117188 -40.1875 35.859375 -40.1875 C 34.597656 -40.1875 33.5 -39.738281 32.5625 -38.84375 C 31.632812 -37.945312 31.171875 -36.566406 31.171875 -34.703125 L 31.171875 0 L 1.21875 0 L 1.21875 -35.921875 C 1.21875 -42.335938 2.210938 -47.734375 4.203125 -52.109375 C 6.191406 -56.492188 8.867188 -60.023438 12.234375 -62.703125 C 15.609375 -65.390625 19.34375 -67.335938 23.4375 -68.546875 C 27.539062 -69.765625 31.703125 -70.375 35.921875 -70.375 C 39.328125 -70.375 42.691406 -69.785156 46.015625 -68.609375 C 49.347656 -67.429688 52.394531 -65.460938 55.15625 -62.703125 C 57.507812 -65.304688 60.410156 -67.21875 63.859375 -68.4375 C 67.316406 -69.65625 70.707031 -70.300781 74.03125 -70.375 C 78.332031 -70.375 82.550781 -69.742188 86.6875 -68.484375 C 90.832031 -67.234375 94.585938 -65.25 97.953125 -62.53125 C 101.328125 -59.8125 104.03125 -56.257812 106.0625 -51.875 C 108.09375 -47.488281 109.109375 -42.171875 109.109375 -35.921875 L 109.109375 0 L 79.140625 0 L 79.140625 -34.703125 C 79.140625 -36.566406 78.648438 -37.945312 77.671875 -38.84375 C 76.703125 -39.738281 75.609375 -40.1875 74.390625 -40.1875 C 73.179688 -40.1875 72.085938 -39.71875 71.109375 -38.78125 C 70.140625 -37.84375 69.65625 -36.441406 69.65625 -34.578125 Z M 69.65625 0 "/></g></g></g><path stroke-linecap="butt" transform="matrix(0.747115, 0, 0, 0.747115, 114.176421, 22.486475)" fill="none" stroke-linejoin="miter" d="M 55.431098 125.913786 C 50.605245 125.913786 46.0565 125.004036 41.79009 123.189767 C 37.518452 121.354583 33.76443 118.81356 30.517567 115.571925 C 27.275932 112.325062 24.745365 108.57104 22.931096 104.299402 C 21.111597 100.032992 20.207077 95.484246 20.207077 90.658393 C 20.207077 85.748885 21.111597 81.184454 22.931096 76.954644 C 24.745365 72.724833 27.275932 68.986497 30.517567 65.739633 C 33.76443 62.497999 37.518452 59.967432 41.79009 58.153162 C 46.0565 56.338893 50.605245 55.429143 55.431098 55.429143 C 60.340606 55.429143 64.905037 56.338893 69.134848 58.153162 C 73.385572 59.967432 77.123909 62.497999 80.34463 65.739633 C 83.591493 68.986497 86.122059 72.724833 87.936329 76.954644 C 89.771513 81.184454 90.691719 85.748885 90.691719 90.658393 C 90.691719 95.484246 89.771513 100.032992 87.936329 104.299402 C 86.122059 108.57104 83.591493 112.325062 80.34463 115.571925 C 77.123909 118.81356 73.385572 121.354583 69.134848 123.189767 C 64.905037 125.004036 60.340606 125.913786 55.431098 125.913786 Z M 55.431098 84.598628 C 53.773682 84.598628 52.341088 85.199899 51.143775 86.397212 C 49.967375 87.573612 49.376561 88.995748 49.376561 90.658393 C 49.376561 92.31581 49.967375 93.748403 51.143775 94.945717 C 52.341088 96.122117 53.773682 96.712931 55.431098 96.712931 C 57.093743 96.712931 58.51588 96.122117 59.692279 94.945717 C 60.889593 93.748403 61.485635 92.31581 61.485635 90.658393 C 61.485635 88.995748 60.889593 87.573612 59.692279 86.397212 C 58.51588 85.199899 57.093743 84.598628 55.431098 84.598628 Z M 55.431098 84.598628 " stroke="#fff9f9" stroke-width="8.900025" stroke-opacity="1" stroke-miterlimit="4"/><g fill="#D62828" fill-opacity="1"><g transform="translate(128.558391, 115.128775)"><g><path d="M 27.046875 1.421875 C 23.429688 1.421875 20.03125 0.742188 16.84375 -0.609375 C 13.65625 -1.972656 10.847656 -3.863281 8.421875 -6.28125 C 5.992188 -8.707031 4.097656 -11.515625 2.734375 -14.703125 C 1.378906 -17.898438 0.703125 -21.300781 0.703125 -24.90625 C 0.703125 -28.570312 1.378906 -31.984375 2.734375 -35.140625 C 4.097656 -38.304688 5.992188 -41.101562 8.421875 -43.53125 C 10.847656 -45.957031 13.65625 -47.847656 16.84375 -49.203125 C 20.03125 -50.566406 23.429688 -51.25 27.046875 -51.25 C 30.703125 -51.25 34.109375 -50.566406 37.265625 -49.203125 C 40.429688 -47.847656 43.226562 -45.957031 45.65625 -43.53125 C 48.082031 -41.101562 49.972656 -38.304688 51.328125 -35.140625 C 52.691406 -31.984375 53.375 -28.570312 53.375 -24.90625 C 53.375 -21.300781 52.691406 -17.898438 51.328125 -14.703125 C 49.972656 -11.515625 48.082031 -8.707031 45.65625 -6.28125 C 43.226562 -3.863281 40.429688 -1.972656 37.265625 -0.609375 C 34.109375 0.742188 30.703125 1.421875 27.046875 1.421875 Z M 27.046875 -29.4375 C 25.796875 -29.4375 24.726562 -28.992188 23.84375 -28.109375 C 22.957031 -27.222656 22.515625 -26.15625 22.515625 -24.90625 C 22.515625 -23.664062 22.957031 -22.601562 23.84375 -21.71875 C 24.726562 -20.832031 25.796875 -20.390625 27.046875 -20.390625 C 28.285156 -20.390625 29.347656 -20.832031 30.234375 -21.71875 C 31.117188 -22.601562 31.5625 -23.664062 31.5625 -24.90625 C 31.5625 -26.15625 31.117188 -27.222656 30.234375 -28.109375 C 29.347656 -28.992188 28.285156 -29.4375 27.046875 -29.4375 Z M 27.046875 -29.4375 "/></g></g></g><path stroke-linecap="butt" transform="matrix(0.747115, 0, 0, 0.747115, 153.286187, 47.368778)" fill="none" stroke-linejoin="miter" d="M 51.870005 125.914468 C 47.044152 125.914468 42.495407 125.004719 38.223769 123.190449 C 33.957359 121.355265 30.203337 118.814242 26.956474 115.567379 C 23.70961 112.325744 21.184272 108.566493 19.364774 104.300084 C 17.550504 100.033674 16.645984 95.484929 16.645984 90.653847 C 16.645984 85.749567 17.550504 81.185136 19.364774 76.955326 C 21.184272 72.725515 23.70961 68.987179 26.956474 65.740315 C 30.203337 62.498681 33.957359 59.968114 38.223769 58.153844 C 42.495407 56.334346 47.044152 55.429826 51.870005 55.429826 C 56.774285 55.429826 61.343944 56.334346 65.573755 58.153844 C 69.824479 59.968114 73.557587 62.498681 76.783537 65.740315 C 80.0304 68.987179 82.560967 72.725515 84.375236 76.955326 C 86.21042 81.185136 87.125397 85.749567 87.125397 90.653847 C 87.125397 95.484929 86.21042 100.033674 84.375236 104.300084 C 82.560967 108.566493 80.0304 112.325744 76.783537 115.567379 C 73.557587 118.814242 69.824479 121.355265 65.573755 123.190449 C 61.343944 125.004719 56.774285 125.914468 51.870005 125.914468 Z M 51.870005 84.59931 C 50.20736 84.59931 48.779995 85.200581 47.582682 86.397894 C 46.406282 87.574294 45.815468 88.996431 45.815468 90.653847 C 45.815468 92.316492 46.406282 93.743857 47.582682 94.94117 C 48.779995 96.122799 50.20736 96.708384 51.870005 96.708384 C 53.53265 96.708384 54.949558 96.122799 56.131186 94.94117 C 57.3285 93.743857 57.924542 92.316492 57.924542 90.653847 C 57.924542 88.996431 57.3285 87.574294 56.131186 86.397894 C 54.949558 85.200581 53.53265 84.59931 51.870005 84.59931 Z M 51.870005 84.59931 " stroke="#fff9f9" stroke-width="8.900025" stroke-opacity="1" stroke-miterlimit="4"/><g fill="#D62828" fill-opacity="1"><g transform="translate(165.006558, 140.011078)"><g><path d="M 27.046875 1.421875 C 23.429688 1.421875 20.03125 0.742188 16.84375 -0.609375 C 13.65625 -1.972656 10.847656 -3.863281 8.421875 -6.28125 C 5.992188 -8.707031 4.097656 -11.515625 2.734375 -14.703125 C 1.378906 -17.898438 0.703125 -21.300781 0.703125 -24.90625 C 0.703125 -28.570312 1.378906 -31.984375 2.734375 -35.140625 C 4.097656 -38.304688 5.992188 -41.101562 8.421875 -43.53125 C 10.847656 -45.957031 13.65625 -47.847656 16.84375 -49.203125 C 20.03125 -50.566406 23.429688 -51.25 27.046875 -51.25 C 30.703125 -51.25 34.109375 -50.566406 37.265625 -49.203125 C 40.429688 -47.847656 43.226562 -45.957031 45.65625 -43.53125 C 48.082031 -41.101562 49.972656 -38.304688 51.328125 -35.140625 C 52.691406 -31.984375 53.375 -28.570312 53.375 -24.90625 C 53.375 -21.300781 52.691406 -17.898438 51.328125 -14.703125 C 49.972656 -11.515625 48.082031 -8.707031 45.65625 -6.28125 C 43.226562 -3.863281 40.429688 -1.972656 37.265625 -0.609375 C 34.109375 0.742188 30.703125 1.421875 27.046875 1.421875 Z M 27.046875 -29.4375 C 25.796875 -29.4375 24.726562 -28.992188 23.84375 -28.109375 C 22.957031 -27.222656 22.515625 -26.15625 22.515625 -24.90625 C 22.515625 -23.664062 22.957031 -22.601562 23.84375 -21.71875 C 24.726562 -20.832031 25.796875 -20.390625 27.046875 -20.390625 C 28.285156 -20.390625 29.347656 -20.832031 30.234375 -21.71875 C 31.117188 -22.601562 31.5625 -23.664062 31.5625 -24.90625 C 31.5625 -26.15625 31.117188 -27.222656 30.234375 -28.109375 C 29.347656 -28.992188 28.285156 -29.4375 27.046875 -29.4375 Z M 27.046875 -29.4375 "/></g></g></g><g fill="#D62828" fill-opacity="1"><g transform="translate(213.223207, 140.011078)"><g><path d="M 22.609375 0 L 0.796875 0 L 0.796875 -25.53125 C 0.796875 -29.90625 1.519531 -33.71875 2.96875 -36.96875 C 4.414062 -40.21875 6.363281 -42.921875 8.8125 -45.078125 C 11.269531 -47.234375 14.019531 -48.84375 17.0625 -49.90625 C 20.101562 -50.976562 23.222656 -51.515625 26.421875 -51.515625 C 29.609375 -51.515625 32.738281 -50.976562 35.8125 -49.90625 C 38.882812 -48.84375 41.632812 -47.234375 44.0625 -45.078125 C 46.488281 -42.921875 48.425781 -40.21875 49.875 -36.96875 C 51.320312 -33.71875 52.046875 -29.90625 52.046875 -25.53125 L 52.046875 0 L 30.234375 0 L 30.234375 -25.53125 C 30.234375 -26.832031 29.847656 -27.851562 29.078125 -28.59375 C 28.304688 -29.332031 27.421875 -29.703125 26.421875 -29.703125 C 25.472656 -29.703125 24.597656 -29.332031 23.796875 -28.59375 C 23.003906 -27.851562 22.609375 -26.832031 22.609375 -25.53125 Z M 22.609375 0 "/></g></g></g><g fill="#D62828" fill-opacity="1"><g transform="translate(231.34063, 78.86145)"><g><path d="M 5.0625 -0.09375 C 4.238281 -0.0507812 3.46875 -0.207031 2.75 -0.5625 C 2.039062 -0.914062 1.457031 -1.414062 1 -2.0625 C 0.550781 -2.707031 0.304688 -3.429688 0.265625 -4.234375 C 0.210938 -5.023438 0.367188 -5.765625 0.734375 -6.453125 C 1.109375 -7.148438 1.628906 -7.71875 2.296875 -8.15625 C 2.960938 -8.59375 3.707031 -8.832031 4.53125 -8.875 C 5.625 -8.945312 6.535156 -8.707031 7.265625 -8.15625 C 8.003906 -7.613281 8.40625 -6.800781 8.46875 -5.71875 L 3.15625 -5.390625 C 3.28125 -4.117188 3.617188 -3.144531 4.171875 -2.46875 C 4.722656 -1.789062 5.390625 -1.472656 6.171875 -1.515625 C 6.742188 -1.546875 7.242188 -1.78125 7.671875 -2.21875 C 8.109375 -2.664062 8.414062 -3.21875 8.59375 -3.875 L 8.828125 -3.84375 C 8.671875 -2.832031 8.273438 -1.972656 7.640625 -1.265625 C 7.015625 -0.554688 6.15625 -0.164062 5.0625 -0.09375 Z M 3.140625 -5.59375 L 5.703125 -5.75 C 5.648438 -6.582031 5.519531 -7.273438 5.3125 -7.828125 C 5.113281 -8.390625 4.816406 -8.660156 4.421875 -8.640625 C 4.023438 -8.617188 3.703125 -8.3125 3.453125 -7.71875 C 3.203125 -7.132812 3.097656 -6.425781 3.140625 -5.59375 Z M 3.140625 -5.59375 "/></g></g></g><g fill="#D62828" fill-opacity="1"><g transform="translate(242.381027, 78.336492)"><g><path d="M 3.890625 0.890625 C 3.265625 0.785156 2.722656 0.5 2.265625 0.03125 C 1.816406 -0.425781 1.492188 -1 1.296875 -1.6875 C 1.109375 -2.382812 1.082031 -3.128906 1.21875 -3.921875 C 1.363281 -4.734375 1.644531 -5.441406 2.0625 -6.046875 C 2.488281 -6.648438 2.992188 -7.101562 3.578125 -7.40625 C 4.160156 -7.71875 4.765625 -7.820312 5.390625 -7.71875 C 5.796875 -7.644531 6.160156 -7.488281 6.484375 -7.25 C 6.816406 -7.019531 7.097656 -6.726562 7.328125 -6.375 L 8.21875 -11.453125 L 11.171875 -10.9375 L 8.984375 1.578125 L 6.03125 1.0625 L 6.140625 0.4375 C 5.796875 0.675781 5.4375 0.828125 5.0625 0.890625 C 4.6875 0.960938 4.296875 0.960938 3.890625 0.890625 Z M 4.890625 0.65625 C 5.140625 0.695312 5.378906 0.640625 5.609375 0.484375 C 5.835938 0.335938 6.050781 0.125 6.25 -0.15625 L 7.234375 -5.78125 C 7.148438 -6.125 7.023438 -6.398438 6.859375 -6.609375 C 6.691406 -6.816406 6.484375 -6.941406 6.234375 -6.984375 C 5.898438 -7.046875 5.597656 -6.925781 5.328125 -6.625 C 5.066406 -6.332031 4.84375 -5.90625 4.65625 -5.34375 C 4.46875 -4.78125 4.3125 -4.132812 4.1875 -3.40625 C 4.0625 -2.695312 3.992188 -2.046875 3.984375 -1.453125 C 3.984375 -0.859375 4.054688 -0.375 4.203125 0 C 4.347656 0.375 4.578125 0.59375 4.890625 0.65625 Z M 4.890625 0.65625 "/></g></g></g><g fill="#D62828" fill-opacity="1"><g transform="translate(253.800292, 80.511058)"><g><path d="M 2.875 5.171875 C 1.925781 4.773438 1.222656 4.375 0.765625 3.96875 C 0.316406 3.5625 0.0351562 3.1875 -0.078125 2.84375 C -0.203125 2.507812 -0.242188 2.21875 -0.203125 1.96875 C -0.160156 1.726562 -0.128906 1.570312 -0.109375 1.5 C 0.00390625 1.25 0.195312 1.035156 0.46875 0.859375 C 0.75 0.679688 1.101562 0.691406 1.53125 0.890625 C 1.78125 0.992188 1.957031 1.140625 2.0625 1.328125 C 2.164062 1.515625 2.234375 1.707031 2.265625 1.90625 C 2.296875 2.101562 2.300781 2.265625 2.28125 2.390625 C 2.257812 2.523438 2.25 2.59375 2.25 2.59375 C 2.25 2.59375 2.195312 2.5625 2.09375 2.5 C 2 2.445312 1.890625 2.429688 1.765625 2.453125 C 1.640625 2.472656 1.523438 2.601562 1.421875 2.84375 C 1.296875 3.125 1.300781 3.398438 1.4375 3.671875 C 1.570312 3.941406 1.78125 4.191406 2.0625 4.421875 C 2.351562 4.660156 2.660156 4.847656 2.984375 4.984375 C 3.265625 5.109375 3.597656 5.21875 3.984375 5.3125 C 4.378906 5.414062 4.78125 5.46875 5.1875 5.46875 C 5.601562 5.476562 5.976562 5.40625 6.3125 5.25 C 6.644531 5.09375 6.894531 4.832031 7.0625 4.46875 C 7.175781 4.207031 7.117188 3.929688 6.890625 3.640625 C 6.660156 3.359375 6.3125 3.070312 5.84375 2.78125 C 5.375 2.5 4.832031 2.207031 4.21875 1.90625 C 3.601562 1.601562 2.945312 1.296875 2.25 0.984375 C 1.59375 0.703125 1.195312 0.351562 1.0625 -0.0625 C 0.9375 -0.476562 0.941406 -0.832031 1.078125 -1.125 C 1.203125 -1.414062 1.398438 -1.65625 1.671875 -1.84375 C 1.941406 -2.03125 2.234375 -2.175781 2.546875 -2.28125 C 2.859375 -2.394531 3.148438 -2.476562 3.421875 -2.53125 C 3.691406 -2.59375 3.878906 -2.632812 3.984375 -2.65625 C 3.671875 -3.050781 3.453125 -3.46875 3.328125 -3.90625 C 3.210938 -4.34375 3.226562 -4.726562 3.375 -5.0625 C 3.5625 -5.507812 3.890625 -5.835938 4.359375 -6.046875 C 4.835938 -6.253906 5.398438 -6.34375 6.046875 -6.3125 C 6.691406 -6.289062 7.375 -6.117188 8.09375 -5.796875 L 8.265625 -5.734375 C 8.304688 -5.859375 8.394531 -6.054688 8.53125 -6.328125 C 8.664062 -6.609375 8.859375 -6.882812 9.109375 -7.15625 C 9.359375 -7.425781 9.664062 -7.613281 10.03125 -7.71875 C 10.394531 -7.832031 10.816406 -7.785156 11.296875 -7.578125 C 11.703125 -7.398438 12.015625 -7.109375 12.234375 -6.703125 C 12.460938 -6.304688 12.492188 -5.925781 12.328125 -5.5625 C 12.203125 -5.28125 12.023438 -5.066406 11.796875 -4.921875 C 11.566406 -4.773438 11.34375 -4.6875 11.125 -4.65625 C 10.90625 -4.625 10.738281 -4.632812 10.625 -4.6875 C 10.625 -4.6875 10.640625 -4.765625 10.671875 -4.921875 C 10.703125 -5.085938 10.671875 -5.273438 10.578125 -5.484375 C 10.484375 -5.691406 10.242188 -5.878906 9.859375 -6.046875 C 9.597656 -6.160156 9.359375 -6.195312 9.140625 -6.15625 C 8.929688 -6.113281 8.765625 -6.039062 8.640625 -5.9375 C 8.515625 -5.832031 8.4375 -5.742188 8.40625 -5.671875 C 9.363281 -5.171875 10.050781 -4.566406 10.46875 -3.859375 C 10.894531 -3.148438 10.972656 -2.476562 10.703125 -1.84375 C 10.515625 -1.4375 10.191406 -1.128906 9.734375 -0.921875 C 9.273438 -0.722656 8.722656 -0.640625 8.078125 -0.671875 C 7.441406 -0.710938 6.769531 -0.890625 6.0625 -1.203125 C 5.664062 -1.378906 5.304688 -1.570312 4.984375 -1.78125 C 4.660156 -1.988281 4.390625 -2.21875 4.171875 -2.46875 C 3.921875 -2.445312 3.6875 -2.390625 3.46875 -2.296875 C 3.257812 -2.210938 3.125 -2.101562 3.0625 -1.96875 C 3.007812 -1.832031 3.015625 -1.703125 3.078125 -1.578125 C 3.148438 -1.460938 3.328125 -1.34375 3.609375 -1.21875 C 4.285156 -0.925781 4.863281 -0.691406 5.34375 -0.515625 C 5.820312 -0.347656 6.265625 -0.175781 6.671875 0 C 7.296875 0.28125 7.832031 0.597656 8.28125 0.953125 C 8.726562 1.304688 9.023438 1.71875 9.171875 2.1875 C 9.328125 2.664062 9.257812 3.234375 8.96875 3.890625 C 8.757812 4.367188 8.359375 4.773438 7.765625 5.109375 C 7.179688 5.453125 6.46875 5.644531 5.625 5.6875 C 4.789062 5.726562 3.875 5.554688 2.875 5.171875 Z M 6.15625 -1.390625 C 6.625 -1.179688 7.039062 -1.222656 7.40625 -1.515625 C 7.769531 -1.816406 8.085938 -2.269531 8.359375 -2.875 C 8.640625 -3.519531 8.757812 -4.085938 8.71875 -4.578125 C 8.675781 -5.078125 8.4375 -5.421875 8 -5.609375 C 7.5 -5.828125 7.0625 -5.78125 6.6875 -5.46875 C 6.320312 -5.15625 6 -4.675781 5.71875 -4.03125 C 5.445312 -3.425781 5.328125 -2.890625 5.359375 -2.421875 C 5.390625 -1.953125 5.65625 -1.609375 6.15625 -1.390625 Z M 6.15625 -1.390625 "/></g></g></g><g fill="#D62828" fill-opacity="1"><g transform="translate(264.491634, 85.45451)"><g><path d="M 3.90625 3.21875 C 3.238281 2.71875 2.75 2.101562 2.4375 1.375 C 2.132812 0.644531 2.019531 -0.109375 2.09375 -0.890625 C 2.175781 -1.679688 2.460938 -2.394531 2.953125 -3.03125 C 3.429688 -3.664062 4.035156 -4.125 4.765625 -4.40625 C 5.503906 -4.6875 6.265625 -4.773438 7.046875 -4.671875 C 7.835938 -4.578125 8.566406 -4.28125 9.234375 -3.78125 C 10.109375 -3.113281 10.640625 -2.332031 10.828125 -1.4375 C 11.023438 -0.550781 10.796875 0.320312 10.140625 1.1875 L 5.90625 -2.046875 C 5.164062 -0.984375 4.785156 -0.015625 4.765625 0.859375 C 4.742188 1.734375 5.039062 2.40625 5.65625 2.875 C 6.113281 3.21875 6.648438 3.363281 7.265625 3.3125 C 7.878906 3.269531 8.46875 3.054688 9.03125 2.671875 L 9.203125 2.84375 C 8.421875 3.507812 7.5625 3.90625 6.625 4.03125 C 5.6875 4.15625 4.78125 3.882812 3.90625 3.21875 Z M 6.03125 -2.203125 L 8.078125 -0.640625 C 8.585938 -1.304688 8.945312 -1.914062 9.15625 -2.46875 C 9.363281 -3.03125 9.3125 -3.429688 9 -3.671875 C 8.675781 -3.910156 8.226562 -3.890625 7.65625 -3.609375 C 7.09375 -3.328125 6.550781 -2.859375 6.03125 -2.203125 Z M 6.03125 -2.203125 "/></g></g></g></svg>